<svg height="511pt" viewBox="0 1 511 511.999" width="511pt" xmlns="http://www.w3.org/2000/svg"><path d="m395.121094 17.757812-30.753906-17.757812-46.273438 80.144531v-17.070312c0-33.964844-27.632812-61.597657-61.597656-61.597657s-61.597656 27.632813-61.597656 61.597657v17.082031l-46.277344-80.15625-30.757813 17.757812-9.304687 34.722657 81.9375 141.917969v317.601562h53.464844l12.535156-12.539062 12.539062 12.539062h53.464844v-317.617188l81.925781-141.902343zm-137.742188 207.746094h-1.769531l-8.027344-18.40625 5.484375-57.242187h6.851563l5.488281 57.242187zm-24.125-75.664062.011719.015625h4.734375l-2.769531 28.914062-12.617188-28.925781h10.640625zm41.734375.011718h4.742188l.011719-.011718h10.632812l-12.617188 28.925781zm-65.089843-86.777343c0-25.695313 20.90625-46.597657 46.597656-46.597657 25.695312 0 46.601562 20.902344 46.601562 46.597657v42.199219l-29.5 29.5h-34.199218l-29.496094-29.5v-42.199219zm97.601562 127.289062v306.636719h-32.253906l-11.214844-11.214844v-145.40625l-.070312-7.5h-15v152.90625l-11.210938 11.214844h-32.253906v-306.621094l-80.839844-140.019531 6.089844-22.71875 12.382812-7.152344 66.023438 114.351563h-9.445313l46.078125 105.664062h21.414063l46.078125-105.664062h-9.441406l66.019531-114.351563 12.386719 7.152344 6.085937 22.71875zm0 0"/><path d="m88.960938 209.527344h45.570312l5.066406 17.863281 14.429688-4.089844-13.269532-46.8125c-2.050781-7.25-8.742187-12.3125-16.273437-12.3125h-91.316406v15h91.3125c.839843 0 1.613281.582031 1.84375 1.398438l3.953125 13.953125h-41.316406zm0 0"/><path d="m171.023438 189.175781-7.066407-26.574219-.03125-.109374c-3.589843-12.707032-15.316406-21.582032-28.519531-21.582032h-134.90625v7.5c0 55.464844 45.125 100.589844 100.589844 100.589844h76.90625v-15h-76.90625c-44.667969 0-81.453125-34.394531-85.265625-78.089844h119.582031c6.503906 0 12.28125 4.359375 14.070312 10.609375l7.050782 26.511719c2.152344 8.085938 8.578125 14.179688 16.769531 15.902344l.765625.160156h3.933594v-15h-2.230469c-2.324219-.710938-4.109375-2.546875-4.742187-4.917969zm0 0"/><path d="m388.511719 179.175781h91.316406v-15h-91.316406c-7.535157 0-14.226563 5.0625-16.269531 12.308594l-13.273438 46.816406 14.429688 4.089844 5.066406-17.863281h45.570312v-14.996094h-41.316406l3.957031-13.964844c.226563-.804687 1-1.390625 1.835938-1.390625zm0 0"/><path d="m377.589844 140.910156c-13.203125 0-24.933594 8.871094-28.519532 21.578125l-7.101562 26.6875c-.628906 2.371094-2.417969 4.207031-4.738281 4.917969h-2.230469v15h3.933594l.765625-.160156c8.191406-1.726563 14.617187-7.816406 16.769531-15.902344l7.050781-26.511719c1.789063-6.25 7.566407-10.609375 14.070313-10.609375h119.582031c-3.8125 43.695313-40.597656 78.089844-85.265625 78.089844h-76.90625v15h76.90625c55.464844 0 100.589844-45.125 100.589844-100.589844v-7.5zm0 0"/><path d="m271.570312 122.65625-10.605468-10.605469 17.132812-17.132812v-27.558594h15v33.773437zm6.113282-63.800781c-.722656-3.632813-2.394532-7.046875-4.835938-9.878907l11.351563-9.804687c4.136719 4.792969 6.972656 10.589844 8.195312 16.765625zm-10.554688-14.578125c-3.226562-1.832032-6.902344-2.804688-10.632812-2.804688v-14.996094c6.324218 0 12.566406 1.644532 18.046875 4.761719zm0 0"/><path d="m296.996094 476.074219h-15v-63.316407h15zm0-73.316407h-15v-15h15zm0-25h-15v-15h15zm0 0"/></svg>