<svg id="Capa_3" data-name="Capa 3" xmlns="http://www.w3.org/2000/svg" viewBox="0 0 1053.65 816.43"><defs><style>.cls-1{fill:#1d1d1b;}.cls-2{fill:none;stroke:#1d1d1b;stroke-miterlimit:10;stroke-width:21px;}</style></defs><rect class="cls-1" x="493.98" y="185.33" width="64.42" height="433.15"/><path class="cls-1" d="M1248.25,50.49s134.28,34.88,143.16,117.07c0,0-106.62,168.81,17.77,371,0,0,80,155.49,208.8,137.72,0,0-114.78-70.08-163.45-183.07-24.32-56.44-80-198.16,3.52-316.72C1458.05,176.44,1437.14,1.82,1248.25,50.49Z" transform="translate(-690.85 135.5)"/><path class="cls-1" d="M1618,676.23s57.58-16.42,50.07-127.68l76.45-1.37S1736.07,710.36,1618,676.23Z" transform="translate(-690.85 135.5)"/><path class="cls-1" d="M1186.83,482.73S975.92,543,966.65,304.27L962,12.24S957.38-96.69,816-131.45c0,0,208.6-44,217.87,173.82l11.59,292S1047.77,454.92,1186.83,482.73Z" transform="translate(-690.85 135.5)"/><path class="cls-1" d="M762.7-4S751.11-115.23,816-131.45c0,0-111.24-39.4-125.15,127.47Z" transform="translate(-690.85 135.5)"/><line class="cls-2" x1="873.77" y1="347.07" x2="162.24" y2="347.07"/><rect class="cls-1" x="824.23" y="347.36" width="50.99" height="50.99"/><rect class="cls-1" x="159.92" y="296.08" width="50.99" height="50.99"/></svg>