<svg height="493pt" viewBox="1 -3 493.99904 493" width="493pt" xmlns="http://www.w3.org/2000/svg"><path d="m189.699219 109.796875v71.390625l22.925781 31.273438c.800781 1.09375 1.269531 2.394531 1.34375 3.746093l5.226562 93.519531c0 .046876 0 .09375.007813.136719.183594 5.628907 4.808594 10.085938 10.4375 10.066407h34.886719c5.628906.019531 10.253906-4.441407 10.4375-10.066407 0-.042969 0-.089843.007812-.136719l5.226563-93.519531c.074219-1.34375.535156-2.636719 1.328125-3.726562l22.78125-31.292969v-71.390625c0-.234375.015625-.472656.039062-.707031.660156-6.554688-1.480468-13.085938-5.902344-17.972656-4.417968-4.890626-10.699218-7.679688-17.289062-7.679688h-2.507812l-9.972657 26.660156c-.953125 2.554688-3.304687 4.320313-6.019531 4.527344-2.71875.207031-5.3125-1.179688-6.644531-3.558594l-9.359375-16.71875-8.554688 16.511719c-1.285156 2.488281-3.933594 3.96875-6.730468 3.761719-2.792969-.203125-5.195313-2.054688-6.105469-4.707032l-9.101563-26.480468h-3.304687c-6.59375 0-12.875 2.789062-17.296875 7.679687-4.417969 4.886719-6.5625 11.417969-5.898438 17.976563.023438.234375.039063.472656.039063.707031zm0 0"/><path d="m318.304688 123.375v60.089844c0 1.480468-.46875 2.921875-1.34375 4.121094l-22.90625 31.464843-5.105469 91.398438c-.472657 13.136719-11.28125 23.53125-24.425781 23.484375h-34.890626c-13.148437.046875-23.957031-10.355469-24.425781-23.496094l-5.101562-91.378906-23.058594-31.441406c-.878906-1.199219-1.351563-2.648438-1.351563-4.136719v-60.09375c-40.425781 24.796875-65.066406 68.816406-65.0625 116.242187 0 75.191406 61.171876 136.363282 136.367188 136.363282 75.191406 0 136.363281-61.171876 136.363281-136.363282.144531-47.464844-24.53125-91.550781-65.058593-116.253906zm0 0"/><path d="m463.21875 206.042969c-1.765625-1.792969-4.359375-2.5-6.792969-1.855469-2.433593.648438-4.328125 2.554688-4.96875 4.988281-.640625 2.433594.078125 5.023438 1.878907 6.785157l16.722656 16.667968h-49.949219c-3.863281 0-7 3.132813-7 7 0 3.867188 3.136719 7 7 7h49.949219l-16.722656 16.667969c-1.800782 1.757813-2.519532 4.347656-1.878907 6.78125.640625 2.4375 2.535157 4.339844 4.96875 4.988281 2.433594.648438 5.027344-.0625 6.792969-1.855468l28.722656-28.625c1.316406-1.3125 2.058594-3.097657 2.058594-4.957032s-.742188-3.644531-2.058594-4.957031zm0 0"/><path d="m270.664062 445.964844-16.664062 16.722656v-49.949219c0-3.867187-3.136719-7-7-7-3.867188 0-7 3.132813-7 7v49.949219l-16.667969-16.722656c-1.761719-1.800782-4.351562-2.519532-6.785156-1.878906-2.433594.640624-4.339844 2.535156-4.988281 4.96875-.644532 2.433593.0625 5.027343 1.855468 6.792968l28.625 28.722656c1.316407 1.316407 3.097657 2.058594 4.960938 2.058594 1.859375 0 3.644531-.742187 4.957031-2.058594l28.625-28.722656c2.730469-2.738281 2.722657-7.171875-.015625-9.902344-2.738281-2.726562-7.171875-2.71875-9.902344.019532zm0 0"/><path d="m23.9375 246.628906h49.949219c3.867187 0 7-3.132812 7-7 0-3.867187-3.132813-7-7-7h-49.949219l16.726562-16.667968c2.691407-2.738282 2.679688-7.132813-.03125-9.851563-2.710937-2.71875-7.105468-2.746094-9.851562-.066406l-28.722656 28.628906c-1.316406 1.3125-2.058594 3.097656-2.058594 4.957031s.742188 3.644532 2.058594 4.957032l28.722656 28.625c1.765625 1.792968 4.359375 2.503906 6.792969 1.855468 2.429687-.648437 4.328125-2.550781 4.96875-4.988281.636719-2.433594-.078125-5.023437-1.878907-6.78125zm0 0"/><path d="m416.636719 361.785156h-.011719c-3.867188.003906-6.996094 3.144532-6.988281 7.011719l.039062 23.609375-35.320312-35.320312c-2.734375-2.734376-7.164063-2.734376-9.898438 0-2.734375 2.734374-2.734375 7.167968 0 9.902343l35.320313 35.316407-23.613282-.039063h-.011718c-3.863282-.003906-7 3.128906-7.003906 6.992187-.003907 3.867188 3.128906 7.003907 6.992187 7.007813l40.554687.066406h.011719c1.855469 0 3.640625-.738281 4.953125-2.054687 1.3125-1.3125 2.046875-3.097656 2.046875-4.957032l-.070312-40.550781c-.007813-3.859375-3.140625-6.988281-7-6.984375zm0 0"/><path d="m119.640625 357.085938-35.320313 35.320312.042969-23.613281c.007813-3.863281-3.121093-7.003907-6.988281-7.011719h-.011719c-3.863281 0-6.996093 3.128906-7 6.988281l-.066406 40.550781c0 1.859376.734375 3.644532 2.046875 4.957032 1.3125 1.316406 3.097656 2.054687 4.953125 2.054687h.011719l40.554687-.066406c3.863281-.003906 6.996094-3.140625 6.992188-7.007813-.003907-3.863281-3.140625-6.996093-7.003907-6.992187h-.011718l-23.609375.039063 35.316406-35.316407c2.734375-2.734375 2.734375-7.167969 0-9.902343-2.734375-2.734376-7.164063-2.734376-9.898437 0zm0 0"/><path d="m369.40625 124.222656c1.855469 0 3.636719-.738281 4.949219-2.050781l35.320312-35.324219-.042969 23.613282c-.003906 3.867187 3.125 7.007812 6.988282 7.011718h.011718c3.863282 0 6.996094-3.125 7-6.984375l.070313-40.554687c.003906-1.859375-.734375-3.640625-2.046875-4.957032-1.3125-1.316406-3.09375-2.054687-4.953125-2.054687h-.011719l-40.550781.070313c-3.867187 0-7 3.136718-6.996094 7.003906.003907 3.867187 3.140625 6.996094 7.007813 6.996094h.011718l23.609376-.042969-35.320313 35.320312c-2 2.003907-2.601563 5.015625-1.515625 7.632813 1.082031 2.613281 3.636719 4.320312 6.46875 4.320312zm0 0"/><path d="m77.363281 117.472656h.011719c3.863281-.003906 6.992188-3.144531 6.988281-7.011718l-.042969-23.613282 35.320313 35.324219c2.734375 2.730469 7.167969 2.730469 9.898437 0 2.734376-2.734375 2.734376-7.167969 0-9.902344l-35.320312-35.320312 23.613281.039062h.011719c3.867188.003907 7.003906-3.125 7.003906-6.992187.003906-3.867188-3.125-7.003906-6.992187-7.007813l-40.550781-.066406h-.011719c-1.859375 0-3.640625.738281-4.957031 2.054687-1.3125 1.316407-2.046876 3.097657-2.042969 4.957032l.066406 40.550781c.007813 3.863281 3.140625 6.992187 7.003906 6.988281zm0 0"/><path d="m245.976562 56.660156c12.238282-.019531 22.15625-9.933594 22.171876-22.171875v-11.667969c.054687-7.957031-4.160157-15.332031-11.042969-19.324218-6.878907-3.996094-15.375-3.996094-22.257813 0-6.878906 3.992187-11.09375 11.367187-11.039062 19.324218v11.667969c.015625 12.238281 9.929687 22.152344 22.167968 22.171875zm0 0"/></svg>