<svg id="Layer_2" data-name="Layer 2" xmlns="http://www.w3.org/2000/svg" viewBox="0 0 371.72 252.2"><defs><style>.cls-1{fill:#fff;}</style></defs><path class="cls-1" d="M1005.56,569.18c-9-10.23-21-18.24-32.22-26,1.56-2.42,1-2.82-.57-.39L971,541.58c-17.42-12.07-35.42-23.33-53.6-34.2-3.19-1.91-6.42-3.8-9.66-5.68.06-.29.12-.59.19-.88a.29.29,0,0,0-.55-.15l-.24.68c-8.91-5.15-18-10.11-27.3-14.54,0-2.43-.08-4.87-.22-7.3a.28.28,0,0,0-.56,0q-.25,3.33-.65,6.63c-4.08-1.91-8.18-3.72-12.33-5.39-6.19-2.49-18-8.61-25.44-6.46a1.51,1.51,0,0,0-1.09.21c-9.48,6-17.62,13.64-25.39,21.72-7.57,7.87-16.59,17.87-20.73,28.06a1.39,1.39,0,0,0-.06.19c-2.73.75-4.74,4.17-3,6.95A28.67,28.67,0,0,1,794,539.9a27.35,27.35,0,0,0,3.75,5.88,11.74,11.74,0,0,0,5.6,7.28c.28.15.57.26.85.4.66,1.06,1.33,2.1,2,3.11-5.82.39-11.71.21-17.49.19-17.12-.06-34.22-1.26-51.32-2.32.12-1.39.25-2.77.41-4.14,0-.1-.15-.1-.16,0-.17,1.38-.31,2.75-.45,4.13q-6.18-.39-12.36-.72c-10.55-.56-99.21-4.14-85,22.72a.61.61,0,0,0,.07.1c-4,10.14-3.74,21.56-3.71,32.3,0,13.09,2,26.55,4.44,39.4a7.44,7.44,0,0,0,8.3,6.41,7.1,7.1,0,0,0,7.38,6.09c26-.36,51.46-4.49,76.82-9.43a2.43,2.43,0,0,0,2.7-.53c29.16-5.76,58.21-12.45,87.81-15.61.23.16.48.33.75.49,2.82,1.71,4.25.64,5.34-1.09l1-.09a74.49,74.49,0,0,0-6.27,8.16c-3.06,4.27-5.79,8.82-8.71,13.22-4.44-3.79-12.4,1.55-8.62,7l1.72,2.49a3.74,3.74,0,0,0,3.7,5.37c11.19,16.18,23.81,33.4,40.5,43.72-1.66,8,8.38,16.1,14.94,8.6,43.38-49.71,93-93.43,137.51-142.09A8.51,8.51,0,0,0,1005.56,569.18ZM736.32,566.9c-.93,23,2.43,45.38,13.26,66.29-1.06.75-2.12,1.5-3.16,2.26l-9.54,1.48a37.83,37.83,0,0,1,2.79-11.19,2.23,2.23,0,0,0-3-3,108.66,108.66,0,0,0-21.4,14.54,18.55,18.55,0,0,1,.89-5.82c.68-.53,1.33-1.09,2-1.69,1.67-1.52-.06-4.36-2.17-3.73a5.29,5.29,0,0,0-2.93,2.23,45.54,45.54,0,0,1-4.77,3.25c-5.45-21.2-5-43.09-5.28-64.92C714.08,566.5,725.24,566.81,736.32,566.9ZM763.25,633q-4.07.56-8.13,1.16a68.49,68.49,0,0,0,9.69-8.19C764.45,628.19,763.3,630.6,763.25,633Zm-87.68,11.57c2.39-3,4.83-6,7.23-9.09-.63,2.94-1.26,5.87-2.15,8.73C679,644.32,677.26,644.43,675.57,644.54Zm33.14-5.33a.85.85,0,0,0,1.55-.65c-.29-.91-.55-1.82-.82-2.72L711,635a56.11,56.11,0,0,0-.23,5.88c-5.12.71-10.24,1.37-15.37,1.95,4-2,8.23-3.84,12.22-5.94C708,637.64,708.32,638.43,708.71,639.21Zm23.74-1.6q-6.56,1-13.13,2a104.82,104.82,0,0,1,14.54-10.28A52.87,52.87,0,0,0,732.45,637.61Zm-66.58-68.53c-.58,19.52-2.43,39.82-.18,59.08a1.28,1.28,0,0,0,2.55,0c2.27-19.37.39-39.81-.18-59.43,2.55-.36,5.08-.63,7.5-.87,8.61-.89,17.27-1.2,26-1.28-1.24,22.23-3.45,45.33,4.45,66.26-6.7,3.7-14.07,6.42-20.53,10.51,1.48-5.9,2.27-12,4.67-17.62a2.2,2.2,0,0,0-3.8-2.22c-3.58,5.37-7.55,10.45-11.48,15.57a142.48,142.48,0,0,0,6.53-15.35,17.78,17.78,0,0,0,.78-2.37,1,1,0,0,0-1.9-.8,80.81,80.81,0,0,0-8.93,15.93,40.86,40.86,0,0,0-4.4,5.79.08.08,0,0,0,.14.08,31.06,31.06,0,0,1,4.13-5.54c-1.17,2.69-2.25,5.41-3.27,8.12q-4.9.18-9.83.19a10.72,10.72,0,0,0-.19-1.64c-2.61-12.74-3.73-25.7-5.7-38.54-1-6.46-1.51-13-2.12-19.46a27,27,0,0,1-.1-6.72,6.05,6.05,0,0,0-.17-3.17c1.73-1.05,3-2.29,5.3-3.39A42.61,42.61,0,0,1,665.87,569.08Zm107.66,62.54a75.6,75.6,0,0,1,18.69-10.92q0,3.72,0,7.46a2.06,2.06,0,0,0,.61,1.47C786.39,630.14,780,630.82,773.53,631.62Zm23-2.26c5.48-3.48,9.5-8.67,14.82-12.31,1.2,3.46,1.32,9.78,4.89,10.4a10.25,10.25,0,0,0,6-.93,10.28,10.28,0,0,0-1,2.13C813,628.51,804.74,628.79,796.51,629.36Zm165-27.29c-5.63-4.68-10.15-10.71-14.15-16.81-.6-.92-2.09,0-1.47.86,4.25,6.08,9,12.09,14.85,16.71q-8.22,8.08-16.5,16.09c-4.86-4.28-9.9-8.41-14.81-12.49a.71.71,0,0,0-1,1c4.21,4.81,9.48,8.67,14.71,12.56-10.67,10.34-21.37,20.64-32,31.06a78.76,78.76,0,0,1-10-16.17c-.34-.74-1.51-.21-1.3.55,1.75,6.15,5.65,11.68,10.14,16.71-10.69,10.54-21.26,21.2-31.54,32.14a203,203,0,0,1-26.36-28.45c-1-1.29-3.2,0-2.2,1.29a208.56,208.56,0,0,0,26.85,29Q866.3,697.34,856.29,709c-10.3-9.92-19.08-21.53-27.21-33.46a7.12,7.12,0,0,0,1.16-2.83c2.53-13.37,8.68-23.63,17-34.16,3.19-4-.37-8.67-4.43-7.69a2.53,2.53,0,0,0-2.41-1.71,13.15,13.15,0,0,0-4.83,1.52,2.44,2.44,0,0,0-2.09-1.49l.1-.06c1-.37.93-2.06-.26-2a4.54,4.54,0,0,0-3,1.4,4.93,4.93,0,0,0-.39.4c-1.23-.07-2.46-.13-3.7-.18l-.26-.26a48.1,48.1,0,0,1,5.28-5.94c1.61-1.63-.07-3.9-2.08-3.56a15.26,15.26,0,0,0-4.46,1.64c-1.59.8-6.92,5-7,2.79a18.79,18.79,0,0,0-4.11-11,2.14,2.14,0,0,0-2.6-.33c-5.52,3.17-9.48,8.15-14.45,12v-6.55a2.18,2.18,0,0,0-2.74-2.09,81.67,81.67,0,0,0-26.57,15.76c.19-3.54,3.12-7.59.72-11.24a2.22,2.22,0,0,0-3.77,0c-3.49,4.79-8,8.43-12.77,11.88-10.17-19.55-14.74-42.6-14.58-65,14.38.11,28.92.63,43.37.18.93,16.49,4.59,33.52,13.44,47.34a.85.85,0,0,0,1.47-.85,125,125,0,0,1-14-46.51c5.25-.18,10.5-.48,15.72-1,4-.39,9.9-.65,15.45-1.79a31.14,31.14,0,0,0,13.3,8.39c6.74,2.17,14.45-1.36,17.92-7.3,4.78-8.16,1.17-16.46-5.69-21.71-5.28-4-6.15-3.13-9.14-8.07-3.55-5.85-12.18-9.21-18.75-6.68-.22-1.14-.39-2.28-.5-3.4a4.49,4.49,0,0,0-2.75-3.88c4.17-6.09,7.87-12.63,12.29-18.47,6.83-9,14-17.89,22.27-25.62,2.33.19,5,2.08,7,3.31a43.09,43.09,0,0,0-2.64,6.2c-3.49,8.8-8.41,18.14-9.9,27.51a1.28,1.28,0,0,0,2.33,1c4.44-6.52,6.4-14.7,9-22.07,1-2.85,2-5.7,3.08-8.54a22,22,0,0,0,.73-2.48q7.49,4.53,14.8,9.3c3.64,2.38,7.31,4.71,11,7-1.85,11.26-4.1,22.45-5.18,33.81-.09,1,1.4,1.11,1.67.23a151.82,151.82,0,0,0,6.23-32.34c8.05,5,16.15,10,24.21,15-.15.89-.3,1.78-.44,2.68-.93,6-2.72,12-3.35,18-.1.85,1.2,1.14,1.58.43,3.05-5.69,3.93-12.64,4.57-19.61,2.45,1.52,4.9,3,7.33,4.58q6.67,4.25,13.3,8.59a203.3,203.3,0,0,0-5.69,34.32c-.1,1.2,1.57,1.23,2,.27,4.06-10.4,3.67-22.2,5.75-33.26,11.67,7.68,23.2,15.57,34.49,23.79l3,2.17a57.68,57.68,0,0,0-2.29,14.11c0,.73,1.12.73,1.13,0a56.33,56.33,0,0,1,2-13.53c7.31,5.3,14.79,10.82,21.34,17.09C979.4,584.24,970.47,593.19,961.46,602.07Z" transform="translate(-636.21 -473.84)"/></svg>