<svg id="Layer_2" data-name="Layer 2" xmlns="http://www.w3.org/2000/svg" viewBox="0 0 174.93 139.26"><path d="M115.83,1631.66c.15-.3.14-.42,0,0Z" transform="translate(-17.87 -1522.44)"/><path d="M175.41,1555a119.35,119.35,0,0,0-9.68-12c-8.84-9.66-19.56-17.68-32.74-19.7-14.41-2.22-29.56.52-43.36,4.73h0c-3.09.82-6.12,1.72-9,2.67-13.86,4.53-28.05,11.7-37.26,23.34a39.31,39.31,0,0,0-6.1,10.92c-3.55,6.71-5.48,14.14-4.37,21.49,1.26,8.25,7.06,15,13.24,20.25a36.58,36.58,0,0,0,15,10.27c2.81,1.58,5.68,3,8.58,4.4-19.29,9.58-31.58,29.28-51.28,38.2-1.18.53-.34,2.51.88,2.09.76-.26,1.51-.55,2.25-.85l0,.06c1.31,1.15,3.56.89,5.14.81a64.4,64.4,0,0,0,10.94-1.91c10.86-2.52,21.59-5.7,32.17-9.2s21.12-7.19,31.53-11.18c3.49-1.34,7-2.71,10.4-4.22,1.7-.75,3.39-1.47,4-3.38l0-.07-.09.16a.81.81,0,0,0-.67-1.22l.36-.11c.69.27,1.38.52,2.09.74a.49.49,0,0,0,.41.62c.76.07,1.51.11,2.27.13,8.07,2,17.12,1.61,24.66.55,13-1.82,25.93-7.54,34.78-17.38a37.3,37.3,0,0,0,5.73-8.41c.74-.89,1.47-1.79,2.14-2.74C199.56,1587,189.12,1568.63,175.41,1555Zm12.36,26c-.26-1.05-.56-2.09-.88-3.12a29.71,29.71,0,0,1,2,9.72A42.48,42.48,0,0,0,187.77,1580.92Zm-52-53.39c9.2,2,17.16,7.67,23.92,14.4-.56-.39-1.11-.77-1.66-1.13-9.42-6.27-20.15-11.78-31.32-14.49A62.63,62.63,0,0,1,135.74,1527.53ZM101,1635.85c-9.89,3.84-19.9,7.37-29.95,10.76q-6.22,2.1-12.46,4.18c17.13-6.08,34-13,51.3-18.57C107,1633.53,104,1634.7,101,1635.85Zm13.31-4.87.13-.18,0,0A.86.86,0,0,0,114.31,1631Zm-89.58,29.15a.37.37,0,0,0-.23.21,5.52,5.52,0,0,1-1.83,0c19-8.16,31-27.13,49.71-35.91a1.62,1.62,0,0,0,1-1.42l.58.26a.63.63,0,0,0,.64-1.09c-1.87-1.31-3.82-2.58-5.81-3.83,1.41-.23,1.46-2.37.06-2.85-7.52-2.6-14.14-5.56-19.73-11.42a39.18,39.18,0,0,1-9.87-19.92,32.08,32.08,0,0,1,2.08-18.61,58.23,58.23,0,0,1,10-12.71c9.46-9.06,21.83-15.2,34.26-19.53a134,134,0,0,1,15.6-3.46c6.18-1,12.73-1.65,19-.77a72.36,72.36,0,0,1,18.68,5.7,111.56,111.56,0,0,1,33.56,22.47c7.16,10.2,13.07,22.45,13.11,34.78a27.84,27.84,0,0,1-3.53,13.45c-6.28,7.13-15.82,12-24,15.43a132.44,132.44,0,0,1-20.21,6.38c-3.61.86-7.3,1.34-11,1.91-1.15-.14-2.29-.31-3.43-.52a47.45,47.45,0,0,1-4.81-1.17,1,1,0,0,0-.61-.18c-2.85-.86-5.64-1.91-8.42-2.92-1.47-.54-2,1.52-1,2.32a25.83,25.83,0,0,0,3.55,2.28C82.53,1638,54.14,1650.58,24.73,1660.13ZM139,1629.53a138.12,138.12,0,0,0,16.6-4.55,96.16,96.16,0,0,0,14.4-6.17,50.64,50.64,0,0,1-6.34,4A61.18,61.18,0,0,1,139,1629.53Z" transform="translate(-17.87 -1522.44)"/><path d="M78.29,1572.4c-.56-5.16-3.87-9.75-9-9a10.26,10.26,0,0,0-10.82,4.12c-3.71,5.63-2.43,16.15,3.4,20.24l.06.21a.72.72,0,0,0,.52.52c.33.06.65.1,1,.14l.48.21c7.32,2.77,12.08-3,13.78-9.46a14.79,14.79,0,0,0,.69-5.47C78.37,1573.39,78.34,1572.88,78.29,1572.4Zm-5-1.79a27.2,27.2,0,0,1,.18,3.12c0,2.54-.69,5.41-2.48,6.91.32-3,1.21-5.89,1.33-8.88a.92.92,0,0,0-1.43-.73l.45-1.42C72.22,1569.63,73.12,1569.58,73.25,1570.61Zm-5,4,0-.06-.13-.18.54-.82C68.48,1573.91,68.35,1574.26,68.23,1574.62Zm.07,4.47c.2.69.37,1.38.52,2.07-.27-.38-.55-.74-.82-1.12Zm1.09-2.35c.18-.31.36-.61.55-.91-.09.51-.19,1-.29,1.54C69.57,1577.16,69.48,1577,69.39,1576.74Zm-2-3.13a19.46,19.46,0,0,0-1.55-1.6c0-.51,0-1,0-1.53a7.38,7.38,0,0,1,1-.47,8.71,8.71,0,0,1,2.91-.44A45.39,45.39,0,0,1,67.44,1573.61Zm-2.19-2.2-.35-.31.36-.26C65.26,1571,65.25,1571.23,65.25,1571.41Zm-1,6.5a8.77,8.77,0,0,0-.87.58,5.07,5.07,0,0,1-.71-2.78C63.17,1576.46,63.7,1577.19,64.24,1577.91Zm.61.78c.45.57.91,1.14,1.39,1.69a.36.36,0,0,0,0,.11.71.71,0,0,0,0,.3,6.07,6.07,0,0,1-2.24-1.47A9.19,9.19,0,0,1,64.85,1578.69Zm5.25-12.76a8.75,8.75,0,0,1,2.51,1.33c-.22,0-.44,0-.67-.06a.6.6,0,0,0-1.07-.06,14.19,14.19,0,0,0-5,.73c0-.12,0-.24,0-.36A9.61,9.61,0,0,1,70.1,1565.93Zm-4.8,1.92v.21c-.23.1-.45.19-.67.3C64.85,1568.18,65.07,1568,65.3,1567.85Zm-2-1.68a15.11,15.11,0,0,0-3,3A7.19,7.19,0,0,1,63.31,1566.17Zm-2.21,17.19a13.61,13.61,0,0,1-1.63-3.93,9.71,9.71,0,0,0,1.83,2.16A7.51,7.51,0,0,0,61.1,1583.36Zm14.43-5.56a14.28,14.28,0,0,1-1.41,4.22,11.48,11.48,0,0,1-5.58,4.59,8.25,8.25,0,0,1-1,.3,7.36,7.36,0,0,1-2.05-.19,6.51,6.51,0,0,1-3-1.6,10.67,10.67,0,0,1-.13-2.67,10.23,10.23,0,0,0,7.18,1.71c3.68-.55,5.36-3.39,6-6.72C75.57,1577.56,75.55,1577.69,75.53,1577.8Z" transform="translate(-17.87 -1522.44)"/><path d="M108.88,1593.1a13.68,13.68,0,0,0,15.21-1.78c3-1,4.38-3.83,4.73-7.09a13.46,13.46,0,0,0,.48-5.82c1.19-4.72-1.1-8.94-6.42-10.89-.47-.17-1-.33-1.55-.49q-.52-.3-1.08-.57a12.54,12.54,0,0,0-10.43-.51,23.05,23.05,0,0,0-2.42.39c.25-.84-.44-1.95-1.42-1.55-5.75,2.32-9.8,7.18-10,13.52a11.15,11.15,0,0,0,1.54,6,9.09,9.09,0,0,0-.08,2.33c.5,5.45,5.62,6.56,10.73,6.24C108.41,1593,108.65,1593,108.88,1593.1Zm-8.28-9.35.06.16a16.25,16.25,0,0,0,.79,1.77,11.23,11.23,0,0,1-1-1.26C100.48,1584.21,100.53,1584,100.6,1583.75Zm24.64,2.7a13.07,13.07,0,0,1-1.67,2.3,5.48,5.48,0,0,1-2.43.59,26.75,26.75,0,0,0,5.07-5.07v0A13.58,13.58,0,0,1,125.24,1586.45Zm-3.14-11.37a1.05,1.05,0,0,0-.54.3c-2.43,2.41-5.15,4.48-7.72,6.72a38.21,38.21,0,0,1,6-11.23A6.87,6.87,0,0,1,122.1,1575.08ZM109.7,1587a29.89,29.89,0,0,0,4,2.54,10.15,10.15,0,0,1-5.36-1.28C108.77,1587.82,109.23,1587.4,109.7,1587Zm-1.42-1.11.24.2-.21.16C108.29,1586.14,108.29,1586,108.28,1585.91Zm3.91-.23a.82.82,0,0,0,.53-.23l0,0c.29-.07.58-.13.9-.18s.34-.53.08-.69c1.71-1.49,3.51-2.87,5.28-4.28l-2,4.07a1.06,1.06,0,0,0,1.66,1.28l1.06-1a17,17,0,0,0,.14,1.92,6.75,6.75,0,0,1-.77.89,7.66,7.66,0,0,1-1.71,1.2A24.69,24.69,0,0,1,112.19,1585.68Zm-.89-1a.5.5,0,0,0,0,.12l-.24.08c-1.1-.84-2-1.66-2.76-2.32.44-4.73,2.85-8.44,7.15-11.8a.48.48,0,0,0,.11-.62,5.63,5.63,0,0,1,3.28.16A40,40,0,0,0,111.3,1584.63Zm-4.26-3.35a23.72,23.72,0,0,1-2.39-3,13.13,13.13,0,0,1,1.41-2.8,23,23,0,0,1,7.65-4.87C110,1573.71,107.76,1577.1,107,1581.28Zm-.26,3.31a27.55,27.55,0,0,0,.18,2.81,8.42,8.42,0,0,1-.7-.64,7.25,7.25,0,0,1-2.19-5A33.12,33.12,0,0,0,106.78,1584.59Zm11.3,6.71c.45.11.9.2,1.36.27a11.06,11.06,0,0,1-3.41.68A21,21,0,0,0,118.08,1591.3Zm7-15.76a23.22,23.22,0,0,1,.86,3.5c.11.65.22,1.39.29,2.18a18.15,18.15,0,0,1-1.8,2.55A16.92,16.92,0,0,0,125.06,1575.54Zm-15-7.07a16.52,16.52,0,0,0-2,1.14,9,9,0,0,1,1.32-1Zm-6.81,4.26c.14-.18.29-.35.43-.51a13.33,13.33,0,0,0-.73,2.29,5.46,5.46,0,0,1-.1-.69C102.93,1573.45,103.07,1573.09,103.21,1572.73Zm-4.8,5.58a10.42,10.42,0,0,1,1.93-6.24,6.16,6.16,0,0,0-.13,2.18,16.81,16.81,0,0,0-.54,4.39c0,.12,0,.24,0,.37a17,17,0,0,0-.93,1.66A11.2,11.2,0,0,1,98.41,1578.31Z" transform="translate(-17.87 -1522.44)"/><path d="M153.47,1600.56c2.08.39,4.27-.38,6.14-2.54a8.44,8.44,0,0,0,.64-.81,21.82,21.82,0,0,0,2.48-.79c5.27-2,9.18-6.66,6.85-12.42-2.53-6.27-10.81-13.11-17.8-13.27-3.18-.07-5.17,1.83-6.32,4.32-.19.18-.36.37-.53.56a15.06,15.06,0,0,0-3.33,4.19C137.22,1587.92,143.89,1602.84,153.47,1600.56Zm-7.83-7,1.06.32c.09.2.18.4.28.59A6.28,6.28,0,0,1,145.64,1593.54Zm13.73-6.5c0,.13,0,.26,0,.39a19.51,19.51,0,0,1-2.53.5,8.85,8.85,0,0,0-.57-1.64c.21-.56.44-1.11.69-1.67,0-.09.23-.09.52,0A15.53,15.53,0,0,1,159.37,1587ZM149,1582.16l.74-.42a16.69,16.69,0,0,1,2.46,1.8c-.06.38-.11.76-.14,1.15a36.67,36.67,0,0,0-1.64,4.27.69.69,0,0,0,0,.25A12.24,12.24,0,0,1,149,1582.16Zm.24,9.61-.57-.14c-.17-.43-.34-.88-.5-1.34A9.3,9.3,0,0,0,149.26,1591.77ZM156,1583a2.05,2.05,0,0,0-.5.6c0-.22-.08-.45-.13-.68s.14-.19.2-.29Zm-2,2.42c.18.25.35.52.51.78a1.38,1.38,0,0,1,0,.2l-.25.69-.19-.06A7.77,7.77,0,0,1,154,1585.45Zm-2.58,4.75,1.5,0-.55,1.14a5.36,5.36,0,0,1-1.32-1.2A.91.91,0,0,0,151.39,1590.2ZM155,1592a4.38,4.38,0,0,1-1.1-.09c.16-.3.32-.6.47-.9a3.93,3.93,0,0,0,1,.33,1.42,1.42,0,0,0,0,.2,4.48,4.48,0,0,1-.18.44Zm-2.42-10.33c-.36-.3-.73-.57-1.11-.83.3-.15.58-.28.82-.38l.51.26C152.72,1581.05,152.64,1581.36,152.57,1581.69Zm4.32,9.89s0-.1,0-.16l.4,0Zm-3.59-14.33q-.21-.57-.39-1.14a.07.07,0,0,0-.13,0c.09.4.19.79.29,1.19-.35.12-.7.24-1,.37a7.46,7.46,0,0,0-1.4-.24,3.19,3.19,0,0,0-3.14,1.31l-.56-.2a10.88,10.88,0,0,1,.46-1.64,8.2,8.2,0,0,1,2.64-1.59,6.14,6.14,0,0,1,1.31-.33,9.06,9.06,0,0,1,5.09,1.45A22,22,0,0,0,153.3,1577.25Zm-6.57,3,.09,0a.08.08,0,0,0,0,0l-.1.06S146.72,1580.32,146.73,1580.28Zm12.85-1a9.55,9.55,0,0,1,1.37,4.32l-.83-.35c-.65-1.39-1.29-2.79-1.82-4.23a7.14,7.14,0,0,1,1.14.06Zm-15.14,10.2a1.72,1.72,0,0,0-.07.21l-.22-.21a4.25,4.25,0,0,1,.08-.61C144.29,1589.08,144.36,1589.29,144.44,1589.49Zm3,7.27a10.8,10.8,0,0,0,1.23.48c.1.14.2.26.31.39l-.16-.07A11.57,11.57,0,0,1,147.45,1596.76ZM167.38,1585c1.77,4.25-1.25,7.37-4.84,9a8.21,8.21,0,0,0,2.65-7.1.91.91,0,0,0,.1-1,12.06,12.06,0,0,0,.27-3.92A13.69,13.69,0,0,1,167.38,1585Z" transform="translate(-17.87 -1522.44)"/></svg>