<svg id="Capa_1" data-name="Capa 1" xmlns="http://www.w3.org/2000/svg" viewBox="0 0 662.41 513.27"><defs><style>.cls-1{fill:#fff;}.cls-2{fill:none;stroke:#fff;stroke-miterlimit:10;stroke-width:12px;}</style></defs><rect class="cls-1" x="310.56" y="116.52" width="40.5" height="272.31"/><path class="cls-1" d="M742.62,248.53s84.42,21.93,90,73.6c0,0-67,106.13,11.17,233.21,0,0,50.28,97.75,131.27,86.58,0,0-72.16-44.06-102.76-115.09C857,491.35,822,402.25,874.52,327.72,874.52,327.72,861.37,217.93,742.62,248.53Z" transform="translate(-392.19 -131.6)"/><path class="cls-1" d="M975.06,641.92s36.2-10.32,31.48-80.27l48.06-.86S1049.3,663.38,975.06,641.92Z" transform="translate(-392.19 -131.6)"/><path class="cls-1" d="M704,520.27S571.42,558.16,565.59,408.08l-2.92-183.59s-2.91-68.48-91.79-90.34c0,0,131.13-27.68,137,109.28L615.13,427S616.58,502.79,704,520.27Z" transform="translate(-392.19 -131.6)"/><path class="cls-1" d="M437.36,214.29s-7.28-69.94,33.52-80.14c0,0-69.94-24.77-78.69,80.14Z" transform="translate(-392.19 -131.6)"/><line class="cls-2" x1="549.32" y1="218.2" x2="102" y2="218.2"/><rect class="cls-1" x="518.17" y="212.38" width="32.06" height="32.06"/><rect class="cls-1" x="101.54" y="192.14" width="32.06" height="32.06"/></svg>