<svg id="Capa_1" enable-background="new 0 0 512 512" height="512" viewBox="0 0 512 512" width="512" xmlns="http://www.w3.org/2000/svg"><g><path d="m351.451 70.327c-17.512 0-34.654 6.039-48.269 17.005l9.41 11.682c11.116-8.954 24.553-13.687 38.858-13.687 34.187 0 62 27.813 62 62s-27.813 62-62 62-62-27.813-62-62c0-14.305 4.732-27.741 13.687-38.859l-11.682-9.408c-10.966 13.615-17.005 30.757-17.005 48.268 0 42.458 34.542 77 77 77s77-34.542 77-77-34.541-77.001-76.999-77.001z"/><path d="m498.778 174.983v-55.312h-37.344c-2.698-10.805-6.936-21.044-12.648-30.567l26.396-26.397-39.11-39.111-26.397 26.397c-9.525-5.715-19.765-9.951-30.567-12.648v-37.345h-55.312v37.347c-10.805 2.698-21.044 6.935-30.566 12.647l-26.398-26.397-39.111 39.11 26.398 26.397c-5.713 9.524-9.95 19.764-12.648 30.567h-37.346v31.659c-3.395-.189-6.8-.293-10.188-.293-45.313 0-88.665 16.842-122.072 47.422l10.129 11.064c30.634-28.043 70.39-43.486 111.943-43.486 3.388 0 6.794.116 10.188.322v8.624h37.345c1.329 5.321 3.035 10.504 5.103 15.534-16.765-6.229-34.622-9.479-52.635-9.479-83.104 0-150.715 67.505-150.715 150.48s67.609 150.482 150.714 150.482c37.286 0 73.08-13.712 100.788-38.611l-10.025-11.156c-5.227 4.697-10.778 8.946-16.59 12.738l-7.427-12.864-12.99 7.5 7.42 12.851c-16.611 8.382-34.857 13.294-53.675 14.328v-14.786h-15v14.79c-19.216-1.05-37.378-6.109-53.664-14.352l7.409-12.832-12.99-7.5-7.405 12.826c-15.661-10.239-29.081-23.619-39.358-39.238l12.902-7.449-7.5-12.99-12.946 7.474c-8.305-16.298-13.4-34.484-14.454-53.729h15.005v-15h-15.003c1.06-19.242 6.158-37.427 14.465-53.721l12.931 7.466 7.5-12.99-12.884-7.439c10.278-15.613 23.697-28.987 39.356-39.221l7.389 12.799 12.99-7.5-7.392-12.802c16.281-8.237 34.438-13.293 53.646-14.343v14.751h15v-14.74c17.186.951 34.061 5.161 49.611 12.361l-23.328 23.327 39.111 39.111 26.397-26.396c2.791 1.674 5.651 3.206 8.562 4.625 2.002 2.611 3.906 5.274 5.699 7.993l-12.947 7.475 7.5 12.99 12.997-7.504c3.557 6.967 6.483 14.203 8.756 21.654v2.759h.81c2.672 9.488 4.296 19.307 4.837 29.346h-15.006v15h15.001c-1.038 18.85-5.984 37.12-14.427 53.742l-12.968-7.487-7.5 12.99 12.943 7.473c-3.791 5.772-8.034 11.285-12.723 16.476l11.131 10.055c24.993-27.67 38.758-63.443 38.758-100.73 0-12.612-1.528-24.958-4.516-36.864h15.374c2.747 12.053 4.142 24.425 4.142 36.864 0 91.247-74.339 165.481-165.715 165.481s-165.712-74.235-165.712-165.482c0-41.546 15.488-81.271 43.612-111.857l-11.041-10.152c-30.677 33.362-47.571 76.692-47.571 122.01 0 99.516 81.068 180.48 180.715 180.48s180.715-80.964 180.715-180.481c0-12.418-1.292-24.775-3.807-36.864h8.263v-37.345c10.804-2.698 21.043-6.936 30.566-12.649l26.398 26.398 39.11-39.11-26.397-26.398c5.713-9.523 9.95-19.765 12.648-30.566h37.345zm-50.729-8.92c-2.527 13.102-7.586 25.324-15.034 36.331l-3.471 5.128 24.426 24.427-17.897 17.897-24.427-24.428-5.129 3.472c-11.005 7.449-23.229 12.508-36.33 15.035l-6.079 1.173v34.557h-25.312v-34.556l-6.079-1.173c-13.104-2.528-25.327-7.587-36.332-15.034l-5.128-3.471-24.426 24.425-17.898-17.898 24.427-24.425-3.472-5.129c-7.45-11.006-12.508-23.229-15.034-36.33l-1.173-6.08h-34.557v-25.312h34.557l1.173-6.079c2.528-13.103 7.587-25.326 15.035-36.332l3.471-5.128-24.427-24.426 17.898-17.897 24.427 24.426 5.129-3.471c11.003-7.447 23.227-12.506 36.33-15.034l6.079-1.173v-34.558h25.312v34.557l6.08 1.173c13.099 2.526 25.322 7.584 36.331 15.034l5.128 3.471 24.426-24.426 17.897 17.898-24.425 24.426 3.471 5.128c7.447 11.005 12.506 23.229 15.034 36.332l1.173 6.079h34.556v25.312h-34.557z"/><path d="m361.92 101.499-3.329 14.625c11.108 2.529 20.094 10.872 23.449 21.774l14.336-4.412c-4.929-16.014-18.132-28.271-34.456-31.987z"/><path d="m393.473 168.399c2.716-5.407 4.34-11.215 4.825-17.261l-14.951-1.201c-.33 4.11-1.434 8.057-3.278 11.729z"/><path d="m245.182 269.495-41.583 41.709c-2.929-1.399-6.206-2.184-9.663-2.184-3.116 0-6.087.638-8.788 1.788l-54.58-51.703-10.316 10.89 53.817 50.98c-1.678 3.148-2.632 6.737-2.632 10.546 0 12.406 10.094 22.5 22.5 22.5s22.5-10.094 22.5-22.5c0-3.482-.795-6.781-2.213-9.727l41.582-41.708zm-51.245 69.525c-4.136 0-7.5-3.364-7.5-7.5s3.364-7.5 7.5-7.5 7.5 3.364 7.5 7.5-3.365 7.5-7.5 7.5z"/></g></svg>