<svg id="Capa_1" data-name="Capa 1" xmlns="http://www.w3.org/2000/svg" viewBox="0 0 1450 900"><defs><style>.cls-1{fill:#fff;}.cls-2{fill:none;stroke:#fff;stroke-miterlimit:10;stroke-width:12px;}</style></defs><rect width="1450" height="900"/><rect class="cls-1" x="702.75" y="248.12" width="40.5" height="272.31"/><path class="cls-1" d="M742.62,248.53s84.42,21.93,90,73.6c0,0-67,106.13,11.17,233.21,0,0,50.28,97.75,131.27,86.58,0,0-72.16-44.06-102.76-115.09C857,491.35,822,402.25,874.52,327.72,874.52,327.72,861.37,217.93,742.62,248.53Z"/><path class="cls-1" d="M975.06,641.92s36.2-10.32,31.48-80.27l48.06-.86S1049.3,663.38,975.06,641.92Z"/><path class="cls-1" d="M704,520.27S571.42,558.16,565.59,408.08l-2.92-183.59s-2.91-68.48-91.79-90.34c0,0,131.13-27.68,137,109.28L615.13,427S616.58,502.79,704,520.27Z"/><path class="cls-1" d="M437.36,214.29s-7.28-69.94,33.52-80.14c0,0-69.94-24.77-78.69,80.14Z"/><line class="cls-2" x1="941.51" y1="349.8" x2="494.19" y2="349.8"/><rect class="cls-1" x="910.37" y="343.98" width="32.06" height="32.06"/><rect class="cls-1" x="493.73" y="323.74" width="32.06" height="32.06"/><path class="cls-1" d="M410.79,691.69l-6,18.36h-7.82l19.87-58.43h9.08l20,58.43h-8.07l-6.26-18.36Zm19.19-5.9L424.2,669c-1.27-3.83-2.15-7.31-3-10.66H421c-.83,3.41-1.75,7-2.9,10.56l-5.75,16.92Z"/><path class="cls-1" d="M453.89,648.5h7.58v61.55h-7.58Z"/><path class="cls-1" d="M478.61,690.46C478.76,700.77,485.3,705,493,705a28.4,28.4,0,0,0,11.62-2.14l1.33,5.41a33.82,33.82,0,0,1-14,2.67c-12.88,0-20.63-8.58-20.63-21.16s7.49-22.63,19.73-22.63c13.68,0,17.26,12,17.26,19.72a19.28,19.28,0,0,1-.26,3.57ZM500.93,685c.08-4.81-2-12.34-10.52-12.34-7.78,0-11.1,7-11.7,12.34Z"/><path class="cls-1" d="M507.5,722.17c3.53-.24,6.51-1.2,8.32-3.23,2.08-2.36,2.93-5.67,2.93-15.74V668.12h7.59v38c0,8.17-1.3,13.45-5,17.3-3.36,3.37-8.93,4.71-13,4.74Zm19.76-65.9a4.73,4.73,0,1,1-9.46,0,4.66,4.66,0,0,1,4.81-4.75A4.55,4.55,0,0,1,527.26,656.27Z"/><path class="cls-1" d="M562.09,710.05l-.67-5.29h-.23A15.59,15.59,0,0,1,548.37,711c-8.47,0-12.81-6-12.81-12,0-10.16,9-15.74,25.2-15.62v-.9c0-3.4-1-9.71-9.55-9.67a20.41,20.41,0,0,0-10.92,3.13l-1.73-5.07a26.37,26.37,0,0,1,13.84-3.68c12.81,0,15.94,8.76,15.94,17.16V700a65.56,65.56,0,0,0,.63,10Zm-1.18-21.41c-8.25-.17-17.7,1.31-17.7,9.42,0,5,3.29,7.3,7.12,7.3a10.51,10.51,0,0,0,10.22-7,8.09,8.09,0,0,0,.36-2.4Z"/><path class="cls-1" d="M580.63,679.45c0-4.38-.14-7.85-.34-11.33H587l.43,6.9h.21a15.47,15.47,0,0,1,13.86-7.85c5.76,0,14.78,3.46,14.78,17.87v25h-7.59V685.88c0-6.78-2.55-12.46-9.69-12.46a11,11,0,0,0-10.27,7.83,11.72,11.72,0,0,0-.53,3.54v25.26h-7.59Z"/><path class="cls-1" d="M664.94,648.5v50.74c0,3.73.14,7.92.34,10.81H658.5l-.38-7.25h-.2c-2.34,4.69-7.38,8.21-14.23,8.21-10.16,0-18-8.59-18-21.31-.06-14,8.64-22.53,18.84-22.53,6.44,0,10.78,3,12.65,6.36h.18v-25Zm-7.58,36.68a15.73,15.73,0,0,0-.32-3.26,11.29,11.29,0,0,0-11-8.77c-7.89,0-12.61,6.93-12.61,16.14,0,8.52,4.24,15.59,12.46,15.59A11.51,11.51,0,0,0,657,695.72a12.49,12.49,0,0,0,.38-3.27Z"/><path class="cls-1" d="M677.63,681.18c0-4.95-.12-9.17-.35-13.06H684l.29,8.23h.27c2-5.63,6.58-9.18,11.68-9.18a8.86,8.86,0,0,1,2.12.21v7.18a11.78,11.78,0,0,0-2.6-.22c-5.37,0-9.17,4-10.21,9.75a20.91,20.91,0,0,0-.3,3.56v22.4h-7.59Z"/><path class="cls-1" d="M743.08,688.68c0,15.53-10.77,22.33-20.85,22.33-11.37,0-20.16-8.29-20.16-21.6,0-14,9.23-22.24,20.82-22.24C735,667.17,743.08,675.91,743.08,688.68Zm-33.25.49c0,9.2,5.27,16.12,12.71,16.12s12.78-6.83,12.78-16.34c0-7.1-3.57-16.07-12.64-16.07S709.83,681.22,709.83,689.17Z"/><path class="cls-1" d="M770,652.42a79.85,79.85,0,0,1,14.52-1.26c8,0,13.29,1.52,16.93,4.81A14.62,14.62,0,0,1,806,667.08c0,7.68-4.9,12.78-11,14.89v.21c4.45,1.56,7.15,5.78,8.57,11.83,1.92,8.17,3.3,13.76,4.49,16h-7.83c-.92-1.69-2.24-6.67-3.83-14-1.74-8-4.9-11.1-11.73-11.33h-7.15v25.32H770Zm7.54,26.6h7.71c8.08,0,13.2-4.4,13.2-11.1,0-7.59-5.48-10.88-13.44-10.9a32.85,32.85,0,0,0-7.47.67Z"/><path class="cls-1" d="M840.71,710.05l-.67-5.29h-.23A15.6,15.6,0,0,1,827,711c-8.47,0-12.81-6-12.81-12,0-10.16,9-15.74,25.2-15.62v-.9c0-3.4-1-9.71-9.54-9.67a20.42,20.42,0,0,0-10.93,3.13l-1.73-5.07A26.39,26.39,0,0,1,831,667.17c12.82,0,15.94,8.76,15.94,17.16V700a65.49,65.49,0,0,0,.64,10Zm-1.19-21.41c-8.25-.17-17.7,1.31-17.7,9.42,0,5,3.3,7.3,7.12,7.3a10.5,10.5,0,0,0,10.22-7,7.77,7.77,0,0,0,.36-2.4Z"/><path class="cls-1" d="M859.25,679.45c0-4.38-.14-7.85-.35-11.33h6.63l.4,6.75h.21c2.34-4,6.25-7.7,13.24-7.7a12.34,12.34,0,0,1,11.82,8.41h.17a16.94,16.94,0,0,1,4.73-5.46,14.28,14.28,0,0,1,9.23-3c5.6,0,13.84,3.61,13.84,18.19v24.69h-7.44V686.34c0-8.12-3-12.93-9.1-12.93-4.37,0-7.73,3.18-9.08,6.86a12.7,12.7,0,0,0-.62,3.83v25.95h-7.44V684.89c0-6.68-3-11.48-8.72-11.48-4.75,0-8.23,3.79-9.5,7.61a12,12,0,0,0-.58,3.76v25.27h-7.44Z"/><path class="cls-1" d="M940.07,656.27a4.6,4.6,0,0,1-4.85,4.74,4.55,4.55,0,0,1-4.6-4.74,4.63,4.63,0,0,1,4.74-4.75A4.57,4.57,0,0,1,940.07,656.27Zm-8.52,53.78V668.12h7.59v41.93Z"/><path class="cls-1" d="M951.82,681.18c0-4.95-.12-9.17-.34-13.06h6.68l.29,8.23h.27c2-5.63,6.58-9.18,11.68-9.18a8.81,8.81,0,0,1,2.12.21v7.18a11.74,11.74,0,0,0-2.59-.22c-5.38,0-9.18,4-10.21,9.75a19.91,19.91,0,0,0-.31,3.56v22.4h-7.59Z"/><path class="cls-1" d="M983.59,690.46c.15,10.31,6.69,14.56,14.35,14.56a28.35,28.35,0,0,0,11.61-2.14l1.34,5.41a33.82,33.82,0,0,1-14,2.67c-12.88,0-20.63-8.58-20.63-21.16s7.48-22.63,19.73-22.63c13.68,0,17.25,12,17.25,19.72a18.44,18.44,0,0,1-.26,3.57Zm22.32-5.48c.07-4.81-2-12.34-10.52-12.34-7.78,0-11.1,7-11.71,12.34Z"/><path class="cls-1" d="M1017.81,705.61l19-24.65c1.87-2.33,3.56-4.33,5.51-6.56v-.18H1019.5v-6.1h32l0,4.76-18.74,24.38c-1.79,2.26-3.52,4.42-5.39,6.52V704h24.49v6.09h-34Z"/><path class="cls-1" d="M523,736.74a41.84,41.84,0,0,1,7.26-.58c3.71,0,6.45.86,8.19,2.43a7.93,7.93,0,0,1,2.57,6.12,8.61,8.61,0,0,1-2.27,6.25c-2,2.13-5.24,3.2-8.93,3.2a12.36,12.36,0,0,1-3-.27v11.72H523Zm3.77,14.08a11.77,11.77,0,0,0,3.13.32c4.58,0,7.34-2.24,7.34-6.23s-2.76-5.76-6.9-5.76a18.7,18.7,0,0,0-3.57.29Z"/><path class="cls-1" d="M545.22,751.17c0-2.47-.06-4.58-.17-6.53h3.34l.14,4.11h.14a6.36,6.36,0,0,1,5.84-4.58,4.44,4.44,0,0,1,1.06.1v3.59a6.24,6.24,0,0,0-1.3-.11c-2.69,0-4.58,2-5.1,4.88a9.9,9.9,0,0,0-.16,1.78v11.2h-3.79Z"/><path class="cls-1" d="M578,754.92c0,7.77-5.39,11.16-10.43,11.16-5.69,0-10.08-4.14-10.08-10.8,0-7,4.61-11.11,10.41-11.11C573.88,744.17,578,748.54,578,754.92Zm-16.63.25c0,4.6,2.64,8.06,6.36,8.06s6.39-3.42,6.39-8.18c0-3.54-1.79-8-6.32-8S561.32,751.19,561.32,755.17Z"/><path class="cls-1" d="M600.9,734.83V760.2c0,1.86.08,4,.18,5.41h-3.39L597.5,762h-.11a7.66,7.66,0,0,1-7.11,4.1c-5.08,0-9-4.29-9-10.65,0-7,4.32-11.26,9.42-11.26,3.22,0,5.39,1.5,6.33,3.18h.08V734.83Zm-3.79,18.34a7.57,7.57,0,0,0-.16-1.63,5.63,5.63,0,0,0-5.52-4.38c-3.95,0-6.31,3.46-6.31,8.06,0,4.26,2.12,7.8,6.23,7.8a5.76,5.76,0,0,0,5.58-4.58,6.46,6.46,0,0,0,.18-1.63Z"/><path class="cls-1" d="M624.79,759.87c0,2.2.07,4.08.17,5.74h-3.37l-.2-3.43h-.11a7.81,7.81,0,0,1-6.94,3.9c-3.28,0-7.22-1.84-7.22-9.18V744.64h3.8v11.58c0,4,1.24,6.72,4.68,6.72a5.56,5.56,0,0,0,5-3.5,5.81,5.81,0,0,0,.35-2V744.64h3.79Z"/><path class="cls-1" d="M646.09,764.85a14.46,14.46,0,0,1-6,1.21c-6.33,0-10.46-4.3-10.46-10.71s4.4-11.18,11.26-11.18a12.25,12.25,0,0,1,5.3,1.12l-.85,2.93a9.22,9.22,0,0,0-4.46-1c-4.78,0-7.4,3.58-7.39,7.94,0,4.86,3.12,7.84,7.3,7.84a11.2,11.2,0,0,0,4.67-1Z"/><path class="cls-1" d="M655.7,738.61v6h5.48v2.89H655.7v11.3c0,2.61.75,4.09,2.89,4.09a7.68,7.68,0,0,0,2.2-.28l.18,2.9a9.81,9.81,0,0,1-3.41.52,5.33,5.33,0,0,1-4.11-1.61c-1.05-1.16-1.48-3-1.48-5.47V747.53h-3.25v-2.89H652v-5Z"/><path class="cls-1" d="M684.19,754.92c0,7.77-5.39,11.16-10.42,11.16-5.69,0-10.08-4.14-10.08-10.8,0-7,4.61-11.11,10.41-11.11C680.13,744.17,684.19,748.54,684.19,754.92Zm-16.62.25c0,4.6,2.63,8.06,6.35,8.06s6.39-3.42,6.39-8.18c0-3.54-1.79-8-6.32-8S667.57,751.19,667.57,755.17Z"/><path class="cls-1" d="M689,751.17c0-2.47-.06-4.58-.17-6.53h3.34l.15,4.11h.13a6.37,6.37,0,0,1,5.84-4.58,4.39,4.39,0,0,1,1.06.1v3.59a6.14,6.14,0,0,0-1.29-.11c-2.69,0-4.59,2-5.11,4.88a9.93,9.93,0,0,0-.15,1.78v11.2H689Z"/><path class="cls-1" d="M745.76,752.78c-.23-4.06-.49-9-.47-12.61h-.12q-1.5,5.08-3.67,11.08l-5.16,14.17h-2.85l-4.76-13.91c-1.4-4.13-2.53-7.88-3.35-11.34h-.1c-.1,3.65-.29,8.51-.57,12.89l-.78,12.55h-3.59l2-29.22h4.82l5,14.14c1.21,3.58,2.19,6.8,3,9.84h.11c.77-3,1.79-6.17,3.09-9.84l5.21-14.14h4.83l1.81,29.22h-3.71Z"/><path class="cls-1" d="M773.5,759.87c0,2.2.07,4.08.17,5.74h-3.36l-.21-3.43H770a7.84,7.84,0,0,1-6.94,3.9c-3.28,0-7.22-1.84-7.22-9.18V744.64h3.79v11.58c0,4,1.25,6.72,4.69,6.72a5.54,5.54,0,0,0,5-3.5,5.81,5.81,0,0,0,.35-2V744.64h3.79Z"/><path class="cls-1" d="M779.86,734.83h3.79v30.78h-3.79Z"/><path class="cls-1" d="M794.66,738.61v6h5.48v2.89h-5.48v11.3c0,2.61.75,4.09,2.88,4.09a7.71,7.71,0,0,0,2.21-.28l.18,2.9a9.81,9.81,0,0,1-3.41.52,5.33,5.33,0,0,1-4.11-1.61c-1-1.16-1.48-3-1.48-5.47V747.53h-3.25v-2.89h3.25v-5Z"/><path class="cls-1" d="M808.69,738.71a2.29,2.29,0,0,1-2.42,2.37,2.27,2.27,0,0,1-2.3-2.37,2.31,2.31,0,0,1,2.37-2.37A2.28,2.28,0,0,1,808.69,738.71Zm-4.26,26.9v-21h3.8v21Z"/><path class="cls-1" d="M814.58,750.3c0-2.18-.08-3.92-.18-5.66h3.32l.2,3.38h.1a7.24,7.24,0,0,1,6.62-3.85,6.17,6.17,0,0,1,5.91,4.2h.09a8.47,8.47,0,0,1,2.36-2.73,7.12,7.12,0,0,1,4.62-1.47c2.8,0,6.92,1.8,6.92,9.09v12.35h-3.72V753.75c0-4.06-1.5-6.47-4.55-6.47a5,5,0,0,0-4.54,3.44,6.32,6.32,0,0,0-.31,1.91v13H827.7V753c0-3.34-1.48-5.75-4.36-5.75a5.26,5.26,0,0,0-4.75,3.81,6,6,0,0,0-.29,1.88v12.64h-3.72Z"/><path class="cls-1" d="M852.86,755.81c.08,5.16,3.35,7.28,7.18,7.28a14.18,14.18,0,0,0,5.8-1.07l.67,2.71a17,17,0,0,1-7,1.33c-6.44,0-10.32-4.29-10.32-10.58s3.74-11.31,9.87-11.31c6.84,0,8.62,6,8.62,9.86a8.78,8.78,0,0,1-.13,1.78ZM864,753.07c0-2.4-1-6.17-5.26-6.17-3.89,0-5.55,3.52-5.85,6.17Z"/><path class="cls-1" d="M890.54,734.83V760.2c0,1.86.07,4,.17,5.41h-3.39l-.19-3.63H887a7.69,7.69,0,0,1-7.11,4.1c-5.08,0-9-4.29-9-10.65,0-7,4.31-11.26,9.42-11.26,3.22,0,5.38,1.5,6.32,3.18h.09V734.83Zm-3.79,18.34a8.26,8.26,0,0,0-.16-1.63,5.63,5.63,0,0,0-5.52-4.38c-4,0-6.31,3.46-6.31,8.06,0,4.26,2.12,7.8,6.23,7.8a5.75,5.75,0,0,0,5.57-4.58,6,6,0,0,0,.19-1.63Z"/><path class="cls-1" d="M901.15,738.71a2.29,2.29,0,0,1-2.42,2.37,2.27,2.27,0,0,1-2.3-2.37,2.31,2.31,0,0,1,2.37-2.37A2.28,2.28,0,0,1,901.15,738.71Zm-4.26,26.9v-21h3.8v21Z"/><path class="cls-1" d="M918.66,765.61l-.33-2.65h-.12a7.78,7.78,0,0,1-6.41,3.12c-4.24,0-6.41-3-6.41-6,0-5.08,4.5-7.87,12.6-7.81v-.45c0-1.7-.48-4.86-4.77-4.83a10.2,10.2,0,0,0-5.46,1.56l-.87-2.54a13.21,13.21,0,0,1,6.92-1.83c6.41,0,8,4.38,8,8.58v7.84a33.46,33.46,0,0,0,.32,5Zm-.59-10.71c-4.13-.09-8.85.65-8.85,4.71a3.36,3.36,0,0,0,3.56,3.65,5.25,5.25,0,0,0,5.11-3.51,4.07,4.07,0,0,0,.18-1.2Z"/></svg>