<?xml version="1.0" standalone="no"?>
<!DOCTYPE svg PUBLIC "-//W3C//DTD SVG 20010904//EN"
 "http://www.w3.org/TR/2001/REC-SVG-20010904/DTD/svg10.dtd">
<svg version="1.0" xmlns="http://www.w3.org/2000/svg"
 width="1280.000000pt" height="853.000000pt" viewBox="0 0 1280.000000 853.000000"
 preserveAspectRatio="xMidYMid meet">
<metadata>
Created by potrace 1.15, written by Peter Selinger 2001-2017
</metadata>
<g transform="translate(0.000000,853.000000) scale(0.100000,-0.100000)"
fill="#000000" stroke="none">
<path d="M5107 8013 c-4 -3 -7 -255 -7 -560 l0 -553 110 0 110 0 0 -120 0
-119 118 -3 117 -3 3 -78 c5 -138 -16 -206 -128 -402 -66 -117 -70 -150 -70
-602 0 -380 1 -400 20 -431 40 -65 120 -89 195 -58 19 8 40 24 47 35 20 33 28
25 28 -26 0 -137 156 -199 256 -102 l32 31 6 -30 c12 -52 80 -102 140 -102 49
0 84 15 117 51 l29 31 0 -214 c0 -207 1 -216 23 -249 32 -49 81 -71 139 -65
61 6 92 28 118 80 19 41 20 59 20 467 l0 424 26 -33 c34 -42 97 -79 162 -93
140 -30 246 65 212 190 -10 39 -24 54 -130 136 -29 22 -56 48 -62 59 -6 10
-14 74 -18 140 -5 67 -15 144 -23 171 -36 127 -103 233 -211 330 -105 96 -121
127 -121 245 l0 95 113 3 112 3 0 119 0 119 88 3 87 3 0 555 0 555 -826 3
c-454 1 -829 -1 -832 -5z"/>
<path d="M9007 5623 c-4 -3 -7 -53 -7 -110 l0 -103 -120 0 -120 0 0 -120 0
-120 -87 0 c-146 0 -213 22 -376 122 -31 20 -92 45 -135 57 -74 20 -103 21
-481 21 -335 0 -407 -2 -431 -15 -86 -44 -106 -164 -40 -235 17 -18 30 -34 30
-36 0 -2 -20 -4 -45 -4 -91 0 -145 -55 -145 -145 0 -52 27 -110 55 -121 24
-10 17 -22 -15 -29 -16 -3 -43 -22 -59 -40 -56 -64 -54 -152 6 -210 l36 -35
-215 0 c-207 0 -216 -1 -249 -23 -91 -61 -89 -181 5 -251 26 -20 43 -21 463
-26 l435 -5 -31 -22 c-88 -66 -123 -232 -66 -319 24 -37 98 -68 144 -59 53 10
73 26 136 110 32 41 67 81 79 87 11 7 75 15 141 19 214 12 360 80 500 231 99
107 127 122 247 126 l98 4 0 -116 0 -116 120 0 119 0 3 -87 3 -88 555 0 555 0
0 830 0 830 -551 3 c-303 1 -554 -1 -557 -5z"/>
<path d="M5172 4863 c-26 -5 -72 -49 -126 -122 -57 -77 -69 -82 -208 -91 -219
-14 -368 -84 -505 -236 -89 -99 -123 -117 -240 -122 l-92 -4 -3 113 -3 114
-119 5 -119 5 2 75 c1 41 -2 81 -7 88 -7 10 -126 12 -563 10 l-554 -3 -3 -810
c-1 -445 0 -820 3 -832 l5 -23 554 0 c515 0 554 1 560 17 4 10 6 58 5 108 l-2
90 119 5 119 5 3 119 3 118 117 -4 c137 -6 186 -22 307 -98 148 -94 150 -94
615 -98 223 -2 419 0 437 3 42 8 90 56 103 106 14 53 -1 108 -42 148 l-32 31
48 0 c26 0 60 7 76 15 89 46 107 168 35 239 l-34 35 29 6 c41 9 87 58 100 106
14 52 0 103 -42 146 l-32 33 208 0 c234 0 259 6 297 66 41 67 22 159 -44 208
-28 20 -39 21 -467 24 l-438 3 48 48 c59 59 86 134 77 218 -11 103 -87 157
-195 136z"/>
<path d="M6342 4270 c-18 -4 -45 -18 -59 -31 -52 -49 -53 -56 -53 -513 l0
-425 -48 48 c-55 55 -119 81 -196 81 -95 0 -156 -51 -163 -137 -5 -63 18 -108
76 -147 25 -16 64 -48 88 -71 43 -41 43 -42 43 -111 1 -149 37 -291 102 -402
18 -32 76 -100 129 -152 53 -52 104 -110 114 -129 10 -21 19 -68 22 -127 l6
-94 -117 0 -116 0 0 -120 0 -119 -87 -3 -88 -3 -3 -558 -2 -557 832 2 833 3 0
555 0 555 -107 3 -108 3 0 119 0 120 -121 0 -121 0 4 118 c5 135 19 178 98
312 94 159 94 158 98 605 2 215 1 409 -3 432 -12 84 -102 139 -187 114 -23 -7
-54 -26 -70 -43 l-28 -30 0 41 c0 23 -6 56 -14 75 -38 92 -169 115 -242 42
l-33 -33 -6 29 c-9 39 -58 85 -106 98 -52 14 -109 -1 -148 -41 l-31 -31 0 207
c0 192 -2 210 -21 245 -33 58 -97 85 -167 70z"/>
</g>
</svg>
